<svg width="500.15" height="128" viewBox="0 0 500.15 128" xmlns="http://www.w3.org/2000/svg">
  <g>
    <rect width="128" height="128" rx="20.48" fill="#0f172a" stroke="rgba(198,139,47,0.2)" stroke-width="0.5"/>
    <rect x="30.144" y="24.319999999999993" width="67.712" height="6.4" fill="#C68B2F"/>
    <rect x="32.192" y="30.71999999999999" width="11.52" height="66.56" fill="#C68B2F"/>
    <rect x="84.80000000000001" y="30.71999999999999" width="11.008" height="66.56" fill="#C68B2F"/>
    <rect x="43.712" y="71.85408" width="41.088" height="2" fill="#C68B2F" opacity="0.35"/>
    <rect x="0" y="97.28" width="128" height="6.4" fill="#C68B2F"/>
  </g>
  <path transform="translate(159.529 0)" d="M8.77 84.61L0.47 84.61L16.96 43.57L22.67 43.57L39.16 84.61L30.85 84.61L19.90 54.81L8.77 84.61M28.50 76.60L11.30 76.60L13.66 69.77L26.02 69.77L28.50 76.60M71.19 84.61L65.47 84.61L49.05 43.57L57.41 43.57L69.60 75.25L67.18 75.25L79.13 43.57L87.55 43.57L71.19 84.61M108.46 84.61L100.86 84.61L100.86 43.57L114.40 43.57Q119.41 43.57 122.47 45.01Q125.53 46.45 126.97 49.13Q128.42 51.81 128.42 55.46Q128.42 61.11 125.21 64.21Q122 67.30 116.05 67.65Q114.70 67.71 113.29 67.71Q111.87 67.71 110.87 67.71L108.46 67.71L108.46 84.61M131.95 84.61L123.18 84.61L112.87 66.83L120.65 65.88L131.95 84.61M108.46 50.40L108.46 60.88L113.64 60.88Q115.58 60.88 117.20 60.44Q118.82 60 119.82 58.85Q120.82 57.70 120.82 55.58Q120.82 53.40 119.82 52.28Q118.82 51.16 117.20 50.78Q115.58 50.40 113.64 50.40L108.46 50.40M173.05 84.61L145.73 84.61L145.73 43.57L173.05 43.57L173.05 50.40L153.32 50.40L153.32 60.17L171.75 60.17L171.75 66.94L153.32 66.94L153.32 77.78L173.05 77.78L173.05 84.61M196.19 84.61L188.59 84.61L188.59 43.57L196.42 43.57L215.56 74.66L213.68 74.66L213.68 43.57L221.27 43.57L221.27 84.61L213.38 84.61L194.30 53.46L196.19 53.46L196.19 84.61M255.13 84.61L247.41 84.61L247.41 50.40L234.70 50.40L234.70 43.57L267.79 43.57L267.79 50.40L255.13 50.40L255.13 84.61M288.81 84.61L281.21 84.61L281.21 43.57L288.81 43.57L288.81 84.61M319.07 85.37Q312.54 85.37 308.33 81.96Q304.12 78.54 303.23 72.89L310.65 71.07Q311.30 74.83 313.62 76.72Q315.95 78.60 319.37 78.60Q321.19 78.60 322.63 77.98Q324.08 77.37 324.93 76.16Q325.78 74.95 325.78 73.30Q325.78 71.77 324.90 70.65Q324.02 69.53 322.22 68.59Q320.42 67.65 317.72 66.65Q313.83 65.12 311.21 63.38Q308.59 61.64 307.29 59.35Q306 57.05 306 53.93Q306 50.63 307.62 48.10Q309.24 45.57 312.15 44.10Q315.07 42.63 318.95 42.63Q323.07 42.63 326.28 44.54Q329.49 46.45 331.44 50.22L325.37 53.93Q324.13 51.69 322.46 50.55Q320.78 49.40 318.72 49.40Q317.25 49.40 316.10 49.96Q314.95 50.52 314.27 51.49Q313.59 52.46 313.59 53.75Q313.59 55.11 314.39 56.17Q315.18 57.23 316.98 58.20Q318.78 59.17 321.66 60.23Q325.49 61.64 328.05 63.35Q330.61 65.06 331.97 67.33Q333.32 69.59 333.32 72.83Q333.32 76.48 331.52 79.34Q329.73 82.19 326.55 83.78Q323.37 85.37 319.07 85.37" fill="#ffffff"/>
</svg>