<svg width="529.562" height="128" viewBox="0 0 529.562 128" xmlns="http://www.w3.org/2000/svg">
  <g>
    <rect width="128" height="128" rx="20.48" fill="#0f172a" stroke="rgba(198,139,47,0.2)" stroke-width="0.5"/>
    <rect x="30.144" y="24.319999999999993" width="67.712" height="6.4" fill="#c68b2f"/>
    <rect x="32.192" y="30.71999999999999" width="11.52" height="66.56" fill="#c68b2f"/>
    <rect x="84.80000000000001" y="30.71999999999999" width="11.008" height="66.56" fill="#c68b2f"/>
    <rect x="43.712" y="71.85408" width="41.088" height="2" fill="#c68b2f" opacity="0.35"/>
    <rect x="0" y="97.28" width="128" height="6.4" fill="#c68b2f"/>
  </g>
  <path transform="translate(159.616 0)" d="M16.20 92.24L12.06 103.68L0.38 103.68L19.66 52.22L33.79 52.22L53.07 103.68L41.01 103.68L36.94 92.24L16.20 92.24M26.57 60.98L23.50 71.88L19.51 82.94L33.56 82.94L29.64 71.88L26.57 60.98M104.45 52.22L86.17 103.68L72.12 103.68L53.84 52.22L66.74 52.22L75.57 79.95L79.33 96.38L83.17 79.95L92.01 52.22L104.45 52.22M119.96 84.40L119.96 103.68L108.98 103.68L108.98 52.22L132.86 52.22Q141.62 52.22 146.88 56.29Q152.14 60.36 152.14 68.28Q152.14 74.88 148.15 78.60Q144.15 82.33 137.55 83.10Q140.39 83.87 142.27 85.59Q144.15 87.32 146 90.32L154.14 103.68L141.47 103.68L132.79 89.09Q131.25 86.48 129.29 85.44Q127.33 84.40 123.96 84.40L119.96 84.40M132.48 61.98L119.96 61.98L119.96 75.57L132.48 75.57Q140.62 75.57 140.62 68.81Q140.62 61.98 132.48 61.98M197.07 93.93L197.07 103.68L159.28 103.68L159.28 52.22L197.07 52.22L197.07 61.98L170.27 61.98L170.27 72.81L192.69 72.81L192.69 82.56L170.27 82.56L170.27 93.93L197.07 93.93M214.81 81.72L214.81 103.68L203.83 103.68L203.83 52.22L214.50 52.22L232.78 79.10L237.47 87.17L236.77 75.03L236.77 52.22L247.76 52.22L247.76 103.68L237.31 103.68L218.57 76.57L213.96 68.97L214.81 81.72M279.32 61.98L279.32 103.68L268.34 103.68L268.34 61.98L252.98 61.98L252.98 52.22L294.68 52.22L294.68 61.98L279.32 61.98M310.89 52.22L310.89 103.68L299.90 103.68L299.90 52.22L310.89 52.22M341.53 104.45Q333.70 104.45 327.44 101.80Q321.18 99.15 317.72 93.70L324.94 85.25Q327.40 89.78 332.16 92.16Q336.92 94.54 341.99 94.54Q349.67 94.54 349.67 89.63Q349.67 86.78 347.33 85.44Q344.99 84.10 339.46 82.94L334.46 81.87Q331.16 81.18 328.63 80.18Q326.09 79.18 323.79 77.49Q321.48 75.80 320.22 73.15Q318.95 70.50 318.95 66.97Q318.95 59.67 324.40 55.64Q329.86 51.61 338.07 51.61Q345.29 51.61 350.94 54.18Q356.58 56.76 359.81 61.44L352.36 69.81Q349.90 65.89 345.75 63.71Q341.61 61.52 337.08 61.52Q334.08 61.52 332.20 62.75Q330.32 63.97 330.32 66.20Q330.32 68.81 332.43 70.20Q334.54 71.58 339 72.58L344.83 73.96Q352.67 75.80 356.81 79.30Q360.96 82.79 360.96 89.32Q360.96 96.46 355.55 100.45Q350.13 104.45 341.53 104.45" fill="#ffffff"/>
</svg>