<svg width="1000.3" height="256" viewBox="0 0 1000.3 256" xmlns="http://www.w3.org/2000/svg">
  <g>
    <rect x="60.288" y="48.639999999999986" width="135.424" height="12.8" fill="#C68B2F"/>
    <rect x="64.384" y="61.43999999999998" width="23.04" height="133.12" fill="#C68B2F"/>
    <rect x="169.60000000000002" y="61.43999999999998" width="22.016" height="133.12" fill="#C68B2F"/>
    <rect x="87.424" y="143.70816" width="82.176" height="2" fill="#C68B2F" opacity="0.35"/>
    <rect x="0" y="194.56" width="256" height="12.8" fill="#C68B2F"/>
  </g>
  <path transform="translate(319.058 0)" d="M17.55 169.22L0.94 169.22L33.91 87.14L45.34 87.14L78.31 169.22L61.71 169.22L39.80 109.63L17.55 169.22M57 153.20L22.61 153.20L27.32 139.54L52.05 139.54L57 153.20M142.37 169.22L130.95 169.22L98.09 87.14L114.82 87.14L139.19 150.49L134.36 150.49L158.27 87.14L175.11 87.14L142.37 169.22M216.91 169.22L201.72 169.22L201.72 87.14L228.81 87.14Q238.82 87.14 244.94 90.02Q251.06 92.91 253.95 98.27Q256.83 103.62 256.83 110.92Q256.83 122.23 250.42 128.41Q244 134.59 232.10 135.30Q229.40 135.42 226.57 135.42Q223.74 135.42 221.74 135.42L216.91 135.42L216.91 169.22M263.90 169.22L246.35 169.22L225.75 133.65L241.29 131.77L263.90 169.22M216.91 100.80L216.91 121.76L227.28 121.76Q231.16 121.76 234.40 120.88Q237.64 119.99 239.64 117.70Q241.64 115.40 241.64 111.16Q241.64 106.80 239.64 104.57Q237.64 102.33 234.40 101.56Q231.16 100.80 227.28 100.80L216.91 100.80M346.10 169.22L291.46 169.22L291.46 87.14L346.10 87.14L346.10 100.80L306.65 100.80L306.65 120.35L343.51 120.35L343.51 133.89L306.65 133.89L306.65 155.56L346.10 155.56L346.10 169.22M392.38 169.22L377.19 169.22L377.19 87.14L392.85 87.14L431.12 149.31L427.35 149.31L427.35 87.14L442.54 87.14L442.54 169.22L426.76 169.22L388.61 106.92L392.38 106.92L392.38 169.22M510.25 169.22L494.83 169.22L494.83 100.80L469.39 100.80L469.39 87.14L535.57 87.14L535.57 100.80L510.25 100.80L510.25 169.22M577.61 169.22L562.42 169.22L562.42 87.14L577.61 87.14L577.61 169.22M638.14 170.75Q625.07 170.75 616.65 163.92Q608.23 157.09 606.46 145.78L621.30 142.13Q622.60 149.67 627.25 153.44Q631.90 157.20 638.73 157.20Q642.38 157.20 645.27 155.97Q648.15 154.73 649.86 152.32Q651.57 149.90 651.57 146.61Q651.57 143.54 649.80 141.31Q648.03 139.07 644.44 137.19Q640.85 135.30 635.43 133.30Q627.66 130.24 622.42 126.76Q617.18 123.29 614.59 118.70Q612 114.10 612 107.86Q612 101.27 615.24 96.20Q618.48 91.14 624.30 88.20Q630.13 85.25 637.91 85.25Q646.15 85.25 652.57 89.08Q658.98 92.91 662.87 100.44L650.74 107.86Q648.27 103.39 644.91 101.09Q641.56 98.80 637.43 98.80Q634.49 98.80 632.19 99.91Q629.90 101.03 628.54 102.98Q627.19 104.92 627.19 107.51Q627.19 110.22 628.78 112.34Q630.37 114.46 633.96 116.40Q637.55 118.34 643.32 120.46Q650.98 123.29 656.10 126.70Q661.22 130.12 663.93 134.65Q666.64 139.19 666.64 145.66Q666.64 152.97 663.05 158.68Q659.46 164.39 653.10 167.57Q646.74 170.75 638.14 170.75" fill="#C68B2F"/>
</svg>