<svg width="198.586" height="48" viewBox="0 0 198.586 48" xmlns="http://www.w3.org/2000/svg">
  <g>
    <rect width="48" height="48" rx="7.68" fill="#0f172a" stroke="rgba(198,139,47,0.2)" stroke-width="0.5"/>
    <rect x="11.303999999999998" y="9.120000000000001" width="25.392000000000003" height="2.4000000000000004" fill="#c68b2f"/>
    <rect x="12.072" y="11.520000000000001" width="4.32" height="24.96" fill="#c68b2f"/>
    <rect x="31.8" y="11.520000000000001" width="4.128" height="24.96" fill="#c68b2f"/>
    <rect x="16.392" y="26.945280000000004" width="15.408000000000001" height="2" fill="#c68b2f" opacity="0.35"/>
    <rect x="0" y="36.480000000000004" width="48" height="2.4000000000000004" fill="#c68b2f"/>
  </g>
  <path transform="translate(59.856 0)" d="M6.08 34.59L4.52 38.88L0.14 38.88L7.37 19.58L12.67 19.58L19.90 38.88L15.38 38.88L13.85 34.59L6.08 34.59M9.96 22.87L8.81 26.96L7.32 31.10L12.59 31.10L11.12 26.96L9.96 22.87M39.17 19.58L32.31 38.88L27.04 38.88L20.19 19.58L25.03 19.58L28.34 29.98L29.75 36.14L31.19 29.98L34.50 19.58L39.17 19.58M44.99 31.65L44.99 38.88L40.87 38.88L40.87 19.58L49.82 19.58Q53.11 19.58 55.08 21.11Q57.05 22.64 57.05 25.60Q57.05 28.08 55.56 29.48Q54.06 30.87 51.58 31.16Q52.65 31.45 53.35 32.10Q54.06 32.75 54.75 33.87L57.80 38.88L53.05 38.88L49.80 33.41Q49.22 32.43 48.48 32.04Q47.75 31.65 46.48 31.65L44.99 31.65M49.68 23.24L44.99 23.24L44.99 28.34L49.68 28.34Q52.73 28.34 52.73 25.80Q52.73 23.24 49.68 23.24M73.90 35.22L73.90 38.88L59.73 38.88L59.73 19.58L73.90 19.58L73.90 23.24L63.85 23.24L63.85 27.30L72.26 27.30L72.26 30.96L63.85 30.96L63.85 35.22L73.90 35.22M80.55 30.64L80.55 38.88L76.44 38.88L76.44 19.58L80.44 19.58L87.29 29.66L89.05 32.69L88.79 28.14L88.79 19.58L92.91 19.58L92.91 38.88L88.99 38.88L81.96 28.71L80.24 25.86L80.55 30.64M104.75 23.24L104.75 38.88L100.63 38.88L100.63 23.24L94.87 23.24L94.87 19.58L110.51 19.58L110.51 23.24L104.75 23.24M116.58 19.58L116.58 38.88L112.46 38.88L112.46 19.58L116.58 19.58M128.07 39.17Q125.14 39.17 122.79 38.17Q120.44 37.18 119.15 35.14L121.85 31.97Q122.77 33.67 124.56 34.56Q126.35 35.45 128.25 35.45Q131.13 35.45 131.13 33.61Q131.13 32.54 130.25 32.04Q129.37 31.54 127.30 31.10L125.42 30.70Q124.19 30.44 123.24 30.07Q122.28 29.69 121.42 29.06Q120.56 28.43 120.08 27.43Q119.61 26.44 119.61 25.11Q119.61 22.38 121.65 20.87Q123.70 19.35 126.78 19.35Q129.48 19.35 131.60 20.32Q133.72 21.28 134.93 23.04L132.13 26.18Q131.21 24.71 129.66 23.89Q128.10 23.07 126.40 23.07Q125.28 23.07 124.57 23.53Q123.87 23.99 123.87 24.83Q123.87 25.80 124.66 26.32Q125.45 26.84 127.12 27.22L129.31 27.73Q132.25 28.43 133.80 29.74Q135.36 31.05 135.36 33.49Q135.36 36.17 133.33 37.67Q131.30 39.17 128.07 39.17" fill="#ffffff"/>
</svg>