<svg width="1059.123" height="256" viewBox="0 0 1059.123 256" xmlns="http://www.w3.org/2000/svg">
  <g>
    <rect width="256" height="256" rx="40.96" fill="#0f172a" stroke="rgba(198,139,47,0.2)" stroke-width="0.5"/>
    <rect x="60.288" y="48.639999999999986" width="135.424" height="12.8" fill="#c68b2f"/>
    <rect x="64.384" y="61.43999999999998" width="23.04" height="133.12" fill="#c68b2f"/>
    <rect x="169.60000000000002" y="61.43999999999998" width="22.016" height="133.12" fill="#c68b2f"/>
    <rect x="87.424" y="143.70816" width="82.176" height="2" fill="#c68b2f" opacity="0.35"/>
    <rect x="0" y="194.56" width="256" height="12.8" fill="#c68b2f"/>
  </g>
  <path transform="translate(319.232 0)" d="M32.41 184.47L24.12 207.36L0.77 207.36L39.32 104.45L67.58 104.45L106.14 207.36L82.02 207.36L73.88 184.47L32.41 184.47M53.15 121.96L47 143.77L39.01 165.89L67.12 165.89L59.29 143.77L53.15 121.96M208.90 104.45L172.34 207.36L144.23 207.36L107.67 104.45L133.48 104.45L151.14 159.90L158.67 192.77L166.35 159.90L184.01 104.45L208.90 104.45M239.92 168.81L239.92 207.36L217.96 207.36L217.96 104.45L265.73 104.45Q283.24 104.45 293.76 112.59Q304.28 120.73 304.28 136.55Q304.28 149.76 296.29 157.21Q288.31 164.66 275.10 166.20Q280.78 167.73 284.54 171.19Q288.31 174.64 291.99 180.63L308.28 207.36L282.93 207.36L265.57 178.18Q262.50 172.95 258.59 170.88Q254.67 168.81 247.91 168.81L239.92 168.81M264.96 123.96L239.92 123.96L239.92 151.14L264.96 151.14Q281.24 151.14 281.24 137.63Q281.24 123.96 264.96 123.96M394.14 187.85L394.14 207.36L318.57 207.36L318.57 104.45L394.14 104.45L394.14 123.96L340.53 123.96L340.53 145.61L385.38 145.61L385.38 165.12L340.53 165.12L340.53 187.85L394.14 187.85M429.62 163.43L429.62 207.36L407.65 207.36L407.65 104.45L429 104.45L465.56 158.21L474.93 174.34L473.55 150.07L473.55 104.45L495.51 104.45L495.51 207.36L474.62 207.36L437.15 153.14L427.93 137.93L429.62 163.43M558.64 123.96L558.64 207.36L536.68 207.36L536.68 123.96L505.96 123.96L505.96 104.45L589.36 104.45L589.36 123.96L558.64 123.96M621.77 104.45L621.77 207.36L599.81 207.36L599.81 104.45L621.77 104.45M683.06 208.90Q667.39 208.90 654.87 203.60Q642.36 198.30 635.44 187.39L649.88 170.50Q654.80 179.56 664.32 184.32Q673.84 189.08 683.98 189.08Q699.34 189.08 699.34 179.25Q699.34 173.57 694.66 170.88Q689.97 168.19 678.91 165.89L668.93 163.74Q662.32 162.36 657.25 160.36Q652.19 158.36 647.58 154.98Q642.97 151.60 640.44 146.30Q637.90 141 637.90 133.94Q637.90 119.35 648.81 111.28Q659.71 103.22 676.15 103.22Q690.59 103.22 701.88 108.36Q713.16 113.51 719.62 122.88L704.72 139.62Q699.80 131.79 691.51 127.41Q683.21 123.03 674.15 123.03Q668.16 123.03 664.40 125.49Q660.63 127.95 660.63 132.40Q660.63 137.63 664.86 140.39Q669.08 143.16 677.99 145.15L689.66 147.92Q705.33 151.60 713.63 158.59Q721.92 165.58 721.92 178.64Q721.92 192.92 711.09 200.91Q700.26 208.90 683.06 208.90" fill="#ffffff"/>
</svg>