<svg width="187.556" height="48" viewBox="0 0 187.556 48" xmlns="http://www.w3.org/2000/svg">
  <g>
    <rect x="11.303999999999998" y="9.120000000000001" width="25.392000000000003" height="2.4000000000000004" fill="#0f172a"/>
    <rect x="12.072" y="11.520000000000001" width="4.32" height="24.96" fill="#0f172a"/>
    <rect x="31.8" y="11.520000000000001" width="4.128" height="24.96" fill="#0f172a"/>
    <rect x="16.392" y="26.945280000000004" width="15.408000000000001" height="2" fill="#0f172a" opacity="0.35"/>
    <rect x="0" y="36.480000000000004" width="48" height="2.4000000000000004" fill="#0f172a"/>
  </g>
  <path transform="translate(59.823 0)" d="M3.29 31.73L0.18 31.73L6.36 16.34L8.50 16.34L14.68 31.73L11.57 31.73L7.46 20.56L3.29 31.73M10.69 28.73L4.24 28.73L5.12 26.16L9.76 26.16L10.69 28.73M26.69 31.73L24.55 31.73L18.39 16.34L21.53 16.34L26.10 28.22L25.19 28.22L29.68 16.34L32.83 16.34L26.69 31.73M40.67 31.73L37.82 31.73L37.82 16.34L42.90 16.34Q44.78 16.34 45.93 16.88Q47.07 17.42 47.62 18.42Q48.16 19.43 48.16 20.80Q48.16 22.92 46.95 24.08Q45.75 25.24 43.52 25.37Q43.01 25.39 42.48 25.39Q41.95 25.39 41.58 25.39L40.67 25.39L40.67 31.73M49.48 31.73L46.19 31.73L42.33 25.06L45.24 24.71L49.48 31.73M40.67 18.90L40.67 22.83L42.61 22.83Q43.34 22.83 43.95 22.66Q44.56 22.50 44.93 22.07Q45.31 21.64 45.31 20.84Q45.31 20.03 44.93 19.61Q44.56 19.19 43.95 19.04Q43.34 18.90 42.61 18.90L40.67 18.90M64.89 31.73L54.65 31.73L54.65 16.34L64.89 16.34L64.89 18.90L57.50 18.90L57.50 22.56L64.41 22.56L64.41 25.10L57.50 25.10L57.50 29.17L64.89 29.17L64.89 31.73M73.57 31.73L70.72 31.73L70.72 16.34L73.66 16.34L80.83 28L80.13 28L80.13 16.34L82.98 16.34L82.98 31.73L80.02 31.73L72.86 20.05L73.57 20.05L73.57 31.73M95.67 31.73L92.78 31.73L92.78 18.90L88.01 18.90L88.01 16.34L100.42 16.34L100.42 18.90L95.67 18.90L95.67 31.73M108.30 31.73L105.45 31.73L105.45 16.34L108.30 16.34L108.30 31.73M119.65 32.02Q117.20 32.02 115.62 30.73Q114.04 29.45 113.71 27.33L116.49 26.65Q116.74 28.06 117.61 28.77Q118.48 29.48 119.76 29.48Q120.45 29.48 120.99 29.24Q121.53 29.01 121.85 28.56Q122.17 28.11 122.17 27.49Q122.17 26.91 121.84 26.50Q121.51 26.08 120.83 25.72Q120.16 25.37 119.14 24.99Q117.69 24.42 116.70 23.77Q115.72 23.12 115.24 22.26Q114.75 21.39 114.75 20.22Q114.75 18.99 115.36 18.04Q115.96 17.09 117.06 16.54Q118.15 15.98 119.61 15.98Q121.15 15.98 122.36 16.70Q123.56 17.42 124.29 18.83L122.01 20.22Q121.55 19.39 120.92 18.95Q120.29 18.52 119.52 18.52Q118.97 18.52 118.54 18.73Q118.11 18.94 117.85 19.31Q117.60 19.67 117.60 20.16Q117.60 20.67 117.90 21.06Q118.19 21.46 118.87 21.83Q119.54 22.19 120.62 22.59Q122.06 23.12 123.02 23.76Q123.98 24.40 124.49 25.25Q124.99 26.10 124.99 27.31Q124.99 28.68 124.32 29.75Q123.65 30.82 122.46 31.42Q121.26 32.02 119.65 32.02" fill="#0f172a"/>
</svg>