<svg width="264.781" height="64" viewBox="0 0 264.781 64" xmlns="http://www.w3.org/2000/svg">
  <g>
    <rect x="15.072" y="12.159999999999997" width="33.856" height="3.2" fill="#0f172a"/>
    <rect x="16.096" y="15.359999999999996" width="5.76" height="33.28" fill="#0f172a"/>
    <rect x="42.400000000000006" y="15.359999999999996" width="5.504" height="33.28" fill="#0f172a"/>
    <rect x="21.856" y="35.92704" width="20.544" height="2" fill="#0f172a" opacity="0.35"/>
    <rect x="0" y="48.64" width="64" height="3.2" fill="#0f172a"/>
  </g>
  <path transform="translate(79.808 0)" d="M8.10 46.12L6.03 51.84L0.19 51.84L9.83 26.11L16.90 26.11L26.53 51.84L20.51 51.84L18.47 46.12L8.10 46.12M13.29 30.49L11.75 35.94L9.75 41.47L16.78 41.47L14.82 35.94L13.29 30.49M52.22 26.11L43.08 51.84L36.06 51.84L26.92 26.11L33.37 26.11L37.79 39.97L39.67 48.19L41.59 39.97L46 26.11L52.22 26.11M59.98 42.20L59.98 51.84L54.49 51.84L54.49 26.11L66.43 26.11Q70.81 26.11 73.44 28.15Q76.07 30.18 76.07 34.14Q76.07 37.44 74.07 39.30Q72.08 41.16 68.77 41.55Q70.20 41.93 71.14 42.80Q72.08 43.66 73 45.16L77.07 51.84L70.73 51.84L66.39 44.54Q65.63 43.24 64.65 42.72Q63.67 42.20 61.98 42.20L59.98 42.20M66.24 30.99L59.98 30.99L59.98 37.79L66.24 37.79Q70.31 37.79 70.31 34.41Q70.31 30.99 66.24 30.99M98.53 46.96L98.53 51.84L79.64 51.84L79.64 26.11L98.53 26.11L98.53 30.99L85.13 30.99L85.13 36.40L96.35 36.40L96.35 41.28L85.13 41.28L85.13 46.96L98.53 46.96M107.40 40.86L107.40 51.84L101.91 51.84L101.91 26.11L107.25 26.11L116.39 39.55L118.73 43.58L118.39 37.52L118.39 26.11L123.88 26.11L123.88 51.84L118.66 51.84L109.29 38.28L106.98 34.48L107.40 40.86M139.66 30.99L139.66 51.84L134.17 51.84L134.17 30.99L126.49 30.99L126.49 26.11L147.34 26.11L147.34 30.99L139.66 30.99M155.44 26.11L155.44 51.84L149.95 51.84L149.95 26.11L155.44 26.11M170.76 52.22Q166.85 52.22 163.72 50.90Q160.59 49.57 158.86 46.85L162.47 42.62Q163.70 44.89 166.08 46.08Q168.46 47.27 171 47.27Q174.84 47.27 174.84 44.81Q174.84 43.39 173.66 42.72Q172.49 42.05 169.73 41.47L167.23 40.93Q165.58 40.59 164.31 40.09Q163.05 39.59 161.89 38.75Q160.74 37.90 160.11 36.58Q159.48 35.25 159.48 33.48Q159.48 29.84 162.20 27.82Q164.93 25.80 169.04 25.80Q172.65 25.80 175.47 27.09Q178.29 28.38 179.90 30.72L176.18 34.91Q174.95 32.95 172.88 31.85Q170.80 30.76 168.54 30.76Q167.04 30.76 166.10 31.37Q165.16 31.99 165.16 33.10Q165.16 34.41 166.21 35.10Q167.27 35.79 169.50 36.29L172.42 36.98Q176.33 37.90 178.41 39.65Q180.48 41.40 180.48 44.66Q180.48 48.23 177.77 50.23Q175.07 52.22 170.76 52.22" fill="#0f172a"/>
</svg>