<svg width="250.075" height="64" viewBox="0 0 250.075 64" xmlns="http://www.w3.org/2000/svg">
  <g>
    <rect width="64" height="64" rx="10.24" fill="#C68B2F"/>
    <rect x="15.072" y="12.159999999999997" width="33.856" height="3.2" fill="#0f172a"/>
    <rect x="16.096" y="15.359999999999996" width="5.76" height="33.28" fill="#0f172a"/>
    <rect x="42.400000000000006" y="15.359999999999996" width="5.504" height="33.28" fill="#0f172a"/>
    <rect x="21.856" y="35.92704" width="20.544" height="2" fill="#0f172a" opacity="0.35"/>
    <rect x="0" y="48.64" width="64" height="3.2" fill="#0f172a"/>
  </g>
  <path transform="translate(79.764 0)" d="M4.39 42.30L0.24 42.30L8.48 21.78L11.33 21.78L19.58 42.30L15.43 42.30L9.95 27.41L4.39 42.30M14.25 38.30L5.65 38.30L6.83 34.89L13.01 34.89L14.25 38.30M35.59 42.30L32.74 42.30L24.52 21.78L28.70 21.78L34.80 37.62L33.59 37.62L39.57 21.78L43.78 21.78L35.59 42.30M54.23 42.30L50.43 42.30L50.43 21.78L57.20 21.78Q59.70 21.78 61.24 22.51Q62.77 23.23 63.49 24.57Q64.21 25.91 64.21 27.73Q64.21 30.56 62.60 32.10Q61 33.65 58.03 33.83Q57.35 33.85 56.64 33.85Q55.94 33.85 55.44 33.85L54.23 33.85L54.23 42.30M65.98 42.30L61.59 42.30L56.44 33.41L60.32 32.94L65.98 42.30M54.23 25.20L54.23 30.44L56.82 30.44Q57.79 30.44 58.60 30.22Q59.41 30 59.91 29.42Q60.41 28.85 60.41 27.79Q60.41 26.70 59.91 26.14Q59.41 25.58 58.60 25.39Q57.79 25.20 56.82 25.20L54.23 25.20M86.52 42.30L72.86 42.30L72.86 21.78L86.52 21.78L86.52 25.20L76.66 25.20L76.66 30.09L85.88 30.09L85.88 33.47L76.66 33.47L76.66 38.89L86.52 38.89L86.52 42.30M98.09 42.30L94.30 42.30L94.30 21.78L98.21 21.78L107.78 37.33L106.84 37.33L106.84 21.78L110.64 21.78L110.64 42.30L106.69 42.30L97.15 26.73L98.09 26.73L98.09 42.30M127.56 42.30L123.71 42.30L123.71 25.20L117.35 25.20L117.35 21.78L133.89 21.78L133.89 25.20L127.56 25.20L127.56 42.30M144.40 42.30L140.61 42.30L140.61 21.78L144.40 21.78L144.40 42.30M159.54 42.69Q156.27 42.69 154.16 40.98Q152.06 39.27 151.62 36.45L155.33 35.53Q155.65 37.42 156.81 38.36Q157.98 39.30 159.68 39.30Q160.60 39.30 161.32 38.99Q162.04 38.68 162.46 38.08Q162.89 37.48 162.89 36.65Q162.89 35.89 162.45 35.33Q162.01 34.77 161.11 34.30Q160.21 33.83 158.86 33.32Q156.92 32.56 155.61 31.69Q154.30 30.82 153.65 29.67Q153 28.53 153 26.97Q153 25.32 153.81 24.05Q154.62 22.79 156.08 22.05Q157.53 21.31 159.48 21.31Q161.54 21.31 163.14 22.27Q164.75 23.23 165.72 25.11L162.69 26.97Q162.07 25.85 161.23 25.27Q160.39 24.70 159.36 24.70Q158.62 24.70 158.05 24.98Q157.47 25.26 157.14 25.74Q156.80 26.23 156.80 26.88Q156.80 27.55 157.19 28.08Q157.59 28.61 158.49 29.10Q159.39 29.59 160.83 30.12Q162.74 30.82 164.02 31.68Q165.31 32.53 165.98 33.66Q166.66 34.80 166.66 36.42Q166.66 38.24 165.76 39.67Q164.86 41.10 163.27 41.89Q161.68 42.69 159.54 42.69" fill="#0f172a"/>
</svg>