<svg width="281.136" height="57.6" viewBox="0 0 281.136 57.6" xmlns="http://www.w3.org/2000/svg">
  <path transform="translate(3.456 0)" d="M7.15 48L0.38 48L13.82 14.54L18.48 14.54L31.92 48L25.15 48L16.22 23.71L7.15 48M23.23 41.47L9.22 41.47L11.14 35.90L21.22 35.90L23.23 41.47M58.03 48L53.38 48L39.98 14.54L46.80 14.54L56.74 40.37L54.77 40.37L64.51 14.54L71.38 14.54L58.03 48M88.42 48L82.22 48L82.22 14.54L93.26 14.54Q97.34 14.54 99.84 15.72Q102.34 16.90 103.51 19.08Q104.69 21.26 104.69 24.24Q104.69 28.85 102.07 31.37Q99.46 33.89 94.61 34.18Q93.50 34.22 92.35 34.22Q91.20 34.22 90.38 34.22L88.42 34.22L88.42 48M107.57 48L100.42 48L92.02 33.50L98.35 32.74L107.57 48M88.42 20.11L88.42 28.66L92.64 28.66Q94.22 28.66 95.54 28.30Q96.86 27.94 97.68 27Q98.50 26.06 98.50 24.34Q98.50 22.56 97.68 21.65Q96.86 20.74 95.54 20.42Q94.22 20.11 92.64 20.11L88.42 20.11M141.07 48L118.80 48L118.80 14.54L141.07 14.54L141.07 20.11L124.99 20.11L124.99 28.08L140.02 28.08L140.02 33.60L124.99 33.60L124.99 42.43L141.07 42.43L141.07 48M159.94 48L153.74 48L153.74 14.54L160.13 14.54L175.73 39.89L174.19 39.89L174.19 14.54L180.38 14.54L180.38 48L173.95 48L158.40 22.61L159.94 22.61L159.94 48M207.98 48L201.70 48L201.70 20.11L191.33 20.11L191.33 14.54L218.30 14.54L218.30 20.11L207.98 20.11L207.98 48M235.44 48L229.25 48L229.25 14.54L235.44 14.54L235.44 48M260.11 48.62Q254.78 48.62 251.35 45.84Q247.92 43.06 247.20 38.45L253.25 36.96Q253.78 40.03 255.67 41.57Q257.57 43.10 260.35 43.10Q261.84 43.10 263.02 42.60Q264.19 42.10 264.89 41.11Q265.58 40.13 265.58 38.78Q265.58 37.54 264.86 36.62Q264.14 35.71 262.68 34.94Q261.22 34.18 259.01 33.36Q255.84 32.11 253.70 30.70Q251.57 29.28 250.51 27.41Q249.46 25.54 249.46 22.99Q249.46 20.30 250.78 18.24Q252.10 16.18 254.47 14.98Q256.85 13.78 260.02 13.78Q263.38 13.78 265.99 15.34Q268.61 16.90 270.19 19.97L265.25 22.99Q264.24 21.17 262.87 20.23Q261.50 19.30 259.82 19.30Q258.62 19.30 257.69 19.75Q256.75 20.21 256.20 21Q255.65 21.79 255.65 22.85Q255.65 23.95 256.30 24.82Q256.94 25.68 258.41 26.47Q259.87 27.26 262.22 28.13Q265.34 29.28 267.43 30.67Q269.52 32.06 270.62 33.91Q271.73 35.76 271.73 38.40Q271.73 41.38 270.26 43.70Q268.80 46.03 266.21 47.33Q263.62 48.62 260.11 48.62" fill="#ffffff"/>
</svg>