<svg width="117.408" height="28.8" viewBox="0 0 117.408 28.8" xmlns="http://www.w3.org/2000/svg">
  <path transform="translate(1.8 0)" d="M5.06 20.42L3.77 24L0.12 24L6.14 7.92L10.56 7.92L16.58 24L12.82 24L11.54 20.42L5.06 20.42M8.30 10.66L7.34 14.06L6.10 17.52L10.49 17.52L9.26 14.06L8.30 10.66M32.64 7.92L26.93 24L22.54 24L16.82 7.92L20.86 7.92L23.62 16.58L24.79 21.72L25.99 16.58L28.75 7.92L32.64 7.92M37.49 17.98L37.49 24L34.06 24L34.06 7.92L41.52 7.92Q44.26 7.92 45.90 9.19Q47.54 10.46 47.54 12.94Q47.54 15 46.30 16.16Q45.05 17.33 42.98 17.57Q43.87 17.81 44.46 18.35Q45.05 18.89 45.62 19.82L48.17 24L44.21 24L41.50 19.44Q41.02 18.62 40.40 18.30Q39.79 17.98 38.74 17.98L37.49 17.98M41.40 10.97L37.49 10.97L37.49 15.22L41.40 15.22Q43.94 15.22 43.94 13.10Q43.94 10.97 41.40 10.97M61.58 20.95L61.58 24L49.78 24L49.78 7.92L61.58 7.92L61.58 10.97L53.21 10.97L53.21 14.35L60.22 14.35L60.22 17.40L53.21 17.40L53.21 20.95L61.58 20.95M67.13 17.14L67.13 24L63.70 24L63.70 7.92L67.03 7.92L72.74 16.32L74.21 18.84L73.99 15.05L73.99 7.92L77.42 7.92L77.42 24L74.16 24L68.30 15.53L66.86 13.15L67.13 17.14M87.29 10.97L87.29 24L83.86 24L83.86 10.97L79.06 10.97L79.06 7.92L92.09 7.92L92.09 10.97L87.29 10.97M97.15 7.92L97.15 24L93.72 24L93.72 7.92L97.15 7.92M106.73 24.24Q104.28 24.24 102.32 23.41Q100.37 22.58 99.29 20.88L101.54 18.24Q102.31 19.66 103.80 20.40Q105.29 21.14 106.87 21.14Q109.27 21.14 109.27 19.61Q109.27 18.72 108.54 18.30Q107.81 17.88 106.08 17.52L104.52 17.18Q103.49 16.97 102.70 16.66Q101.90 16.34 101.18 15.82Q100.46 15.29 100.07 14.46Q99.67 13.63 99.67 12.53Q99.67 10.25 101.38 8.99Q103.08 7.73 105.65 7.73Q107.90 7.73 109.67 8.53Q111.43 9.34 112.44 10.80L110.11 13.42Q109.34 12.19 108.05 11.51Q106.75 10.82 105.34 10.82Q104.40 10.82 103.81 11.21Q103.22 11.59 103.22 12.29Q103.22 13.10 103.88 13.54Q104.54 13.97 105.94 14.28L107.76 14.71Q110.21 15.29 111.50 16.38Q112.80 17.47 112.80 19.51Q112.80 21.74 111.11 22.99Q109.42 24.24 106.73 24.24" fill="#ffffff"/>
</svg>