<svg width="234.816" height="57.6" viewBox="0 0 234.816 57.6" xmlns="http://www.w3.org/2000/svg">
  <path transform="translate(3.6 0)" d="M10.13 40.85L7.54 48L0.24 48L12.29 15.84L21.12 15.84L33.17 48L25.63 48L23.09 40.85L10.13 40.85M16.61 21.31L14.69 28.13L12.19 35.04L20.98 35.04L18.53 28.13L16.61 21.31M65.28 15.84L53.86 48L45.07 48L33.65 15.84L41.71 15.84L47.23 33.17L49.58 43.44L51.98 33.17L57.50 15.84L65.28 15.84M74.98 35.95L74.98 48L68.11 48L68.11 15.84L83.04 15.84Q88.51 15.84 91.80 18.38Q95.09 20.93 95.09 25.87Q95.09 30 92.59 32.33Q90.10 34.66 85.97 35.14Q87.74 35.62 88.92 36.70Q90.10 37.78 91.25 39.65L96.34 48L88.42 48L82.99 38.88Q82.03 37.25 80.81 36.60Q79.58 35.95 77.47 35.95L74.98 35.95M82.80 21.94L74.98 21.94L74.98 30.43L82.80 30.43Q87.89 30.43 87.89 26.21Q87.89 21.94 82.80 21.94M123.17 41.90L123.17 48L99.55 48L99.55 15.84L123.17 15.84L123.17 21.94L106.42 21.94L106.42 28.70L120.43 28.70L120.43 34.80L106.42 34.80L106.42 41.90L123.17 41.90M134.26 34.27L134.26 48L127.39 48L127.39 15.84L134.06 15.84L145.49 32.64L148.42 37.68L147.98 30.10L147.98 15.84L154.85 15.84L154.85 48L148.32 48L136.61 31.06L133.73 26.30L134.26 34.27M174.58 21.94L174.58 48L167.71 48L167.71 21.94L158.11 21.94L158.11 15.84L184.18 15.84L184.18 21.94L174.58 21.94M194.30 15.84L194.30 48L187.44 48L187.44 15.84L194.30 15.84M213.46 48.48Q208.56 48.48 204.65 46.82Q200.74 45.17 198.58 41.76L203.09 36.48Q204.62 39.31 207.60 40.80Q210.58 42.29 213.74 42.29Q218.54 42.29 218.54 39.22Q218.54 37.44 217.08 36.60Q215.62 35.76 212.16 35.04L209.04 34.37Q206.98 33.94 205.39 33.31Q203.81 32.69 202.37 31.63Q200.93 30.58 200.14 28.92Q199.34 27.26 199.34 25.06Q199.34 20.50 202.75 17.98Q206.16 15.46 211.30 15.46Q215.81 15.46 219.34 17.06Q222.86 18.67 224.88 21.60L220.22 26.83Q218.69 24.38 216.10 23.02Q213.50 21.65 210.67 21.65Q208.80 21.65 207.62 22.42Q206.45 23.18 206.45 24.58Q206.45 26.21 207.77 27.07Q209.09 27.94 211.87 28.56L215.52 29.42Q220.42 30.58 223.01 32.76Q225.60 34.94 225.60 39.02Q225.60 43.49 222.22 45.98Q218.83 48.48 213.46 48.48" fill="#ffffff"/>
</svg>