<svg width="140.568" height="28.8" viewBox="0 0 140.568 28.8" xmlns="http://www.w3.org/2000/svg">
  <path transform="translate(1.728 0)" d="M3.58 24L0.19 24L6.91 7.27L9.24 7.27L15.96 24L12.58 24L8.11 11.86L3.58 24M11.62 20.74L4.61 20.74L5.57 17.95L10.61 17.95L11.62 20.74M29.02 24L26.69 24L19.99 7.27L23.40 7.27L28.37 20.18L27.38 20.18L32.26 7.27L35.69 7.27L29.02 24M44.21 24L41.11 24L41.11 7.27L46.63 7.27Q48.67 7.27 49.92 7.86Q51.17 8.45 51.76 9.54Q52.34 10.63 52.34 12.12Q52.34 14.42 51.04 15.68Q49.73 16.94 47.30 17.09Q46.75 17.11 46.18 17.11Q45.60 17.11 45.19 17.11L44.21 17.11L44.21 24M53.78 24L50.21 24L46.01 16.75L49.18 16.37L53.78 24M44.21 10.06L44.21 14.33L46.32 14.33Q47.11 14.33 47.77 14.15Q48.43 13.97 48.84 13.50Q49.25 13.03 49.25 12.17Q49.25 11.28 48.84 10.82Q48.43 10.37 47.77 10.21Q47.11 10.06 46.32 10.06L44.21 10.06M70.54 24L59.40 24L59.40 7.27L70.54 7.27L70.54 10.06L62.50 10.06L62.50 14.04L70.01 14.04L70.01 16.80L62.50 16.80L62.50 21.22L70.54 21.22L70.54 24M79.97 24L76.87 24L76.87 7.27L80.06 7.27L87.86 19.94L87.10 19.94L87.10 7.27L90.19 7.27L90.19 24L86.98 24L79.20 11.30L79.97 11.30L79.97 24M103.99 24L100.85 24L100.85 10.06L95.66 10.06L95.66 7.27L109.15 7.27L109.15 10.06L103.99 10.06L103.99 24M117.72 24L114.62 24L114.62 7.27L117.72 7.27L117.72 24M130.06 24.31Q127.39 24.31 125.68 22.92Q123.96 21.53 123.60 19.22L126.62 18.48Q126.89 20.02 127.84 20.78Q128.78 21.55 130.18 21.55Q130.92 21.55 131.51 21.30Q132.10 21.05 132.44 20.56Q132.79 20.06 132.79 19.39Q132.79 18.77 132.43 18.31Q132.07 17.86 131.34 17.47Q130.61 17.09 129.50 16.68Q127.92 16.06 126.85 15.35Q125.78 14.64 125.26 13.70Q124.73 12.77 124.73 11.50Q124.73 10.15 125.39 9.12Q126.05 8.09 127.24 7.49Q128.42 6.89 130.01 6.89Q131.69 6.89 133 7.67Q134.30 8.45 135.10 9.98L132.62 11.50Q132.12 10.58 131.44 10.12Q130.75 9.65 129.91 9.65Q129.31 9.65 128.84 9.88Q128.38 10.10 128.10 10.50Q127.82 10.90 127.82 11.42Q127.82 11.98 128.15 12.41Q128.47 12.84 129.20 13.24Q129.94 13.63 131.11 14.06Q132.67 14.64 133.72 15.34Q134.76 16.03 135.31 16.96Q135.86 17.88 135.86 19.20Q135.86 20.69 135.13 21.85Q134.40 23.02 133.10 23.66Q131.81 24.31 130.06 24.31" fill="#C68B2F"/>
</svg>